<svg width="985" height="692.97" xmlns="http://www.w3.org/2000/svg"> <defs> <linearGradient y2="0.000137" x2="0.50005" y1="0.999955" x1="0.50005" id="62e9b6da-24f7-4061-9c04-454aab4390a5"> <stop stop-opacity="0.25" stop-color="gray" offset="0"/> <stop stop-opacity="0.12" stop-color="gray" offset="0.54"/> <stop stop-opacity="0.1" stop-color="gray" offset="1"/> </linearGradient> </defs> <title>mindfulness</title> <g> <title>background</title> <rect fill="none" id="canvas_background" height="402" width="582" y="-1" x="-1"/> </g> <g> <title>Layer 1</title> <path id="svg_1" opacity="0.2" fill="#000" d="m297.08,46.319998c-12.12,1.58 -25.29,4.24 -33.3,14.83c-9.47,12.52 -8.2,31.55 -3.91,47.4s11.07,31.3 11,47.9c-0.19,26.39 -18.21,48.79 -38.72,60.6s-43.66,15.62 -65.8,22.51a256,256 0 0 0 -58.77,26.93c-15.59,9.67 -31.27,22.31 -37.51,41.39c-10.23,31.29 8.59,64.5 27.18,90.19c57,78.77 129.66,154.35 218.48,162c66.35,5.67 132.77,-27.89 198.4,-15.58c30.15,5.64 58.24,20.66 86.54,33.89s58.07,25 88.58,23.5s62.15,-18.8 75.37,-50.49c7.81,-18.73 8.6,-40.45 15.82,-59.49c22.12,-58.41 91.06,-67.89 131.06,-111.85c21,-23.09 33,-54.8 43,-86.22c16.15,-51.12 28.26,-105 25.56,-159.35c-1.18,-23.66 -5.6,-48.23 -18.73,-66.49c-9.55,-13.29 -22.88,-22.11 -35.9,-30.64c-29.64,-19.42 -61.46,-39.47 -95.51,-37.16c-19.62,1.33 -38.18,10.06 -56.9,16.9c-35.66,13 -72.86,19.44 -109.87,25.79c-61.15,10.5 -123.18,21 -185.16,15.76c-27.37,-2.33 -53.22,-11.63 -80.15,-15.44c-32.75,-4.63 -68.14,-1.13 -100.76,3.12z"/> <circle id="svg_2" opacity="0.5" fill="#000" r="38" cy="169.97" cx="791"/> <polygon id="svg_3" fill="#000" points="671.33 304.12 323.6 304.12 343.47 242.97 354.12 242.97 356.25 258.83 631.59 258.83 633.01 242.97 645.78 242.97 671.33 304.12"/> <polygon id="svg_5" fill="#000" points="695.46 317.71 292.38 317.71 282.44 292.8 703.98 292.8 695.46 317.71"/> <polygon id="svg_6" fill="#000" points="682.69 333.57 302.31 333.57 292.38 317.71 695.46 317.71 682.69 333.57"/> <rect id="svg_7" fill="#000" height="18.12" width="380.37" y="329.04" x="302.31"/> <rect id="svg_8" fill="#000" height="67.95" width="432.89" y="376.6" x="279.6"/> <polygon id="svg_10" fill="#000" points="985 605.35 0 598.56 28.39 437.75 963.71 437.75 985 605.35"/> <rect id="svg_17" opacity="0.2" height="90.6" width="45.42" y="444.55" x="469.79"/> <circle id="svg_18" stroke-miterlimit="10" stroke="#000" fill="none" cy="632.53" cx="187.35"/> <rect id="svg_19" fill="#000" height="67.95" width="7.1" y="376.6" x="279.6"/> <rect id="svg_20" fill="#000" height="67.95" width="7.1" y="376.6" x="320.76"/> <rect id="svg_21" fill="#000" height="67.95" width="7.1" y="376.6" x="366.18"/> <rect id="svg_22" fill="#000" height="67.95" width="7.1" y="376.6" x="410.18"/> <rect id="svg_23" fill="#000" height="67.95" width="7.1" y="376.6" x="458.44"/> <rect id="svg_24" fill="#000" height="67.95" width="7.1" y="376.6" x="523.72"/> <rect id="svg_25" fill="#000" height="67.95" width="7.1" y="376.6" x="567.72"/> <rect id="svg_26" fill="#000" height="67.95" width="7.1" y="376.6" x="617.4"/> <rect id="svg_27" fill="#000" height="67.95" width="7.1" y="376.6" x="659.98"/> <rect id="svg_28" fill="#000" height="67.95" width="7.1" y="376.6" x="705.4"/> <polygon id="svg_29" fill="#000" points="712.49 381.13 279.6 381.13 254.06 358.48 736.62 358.48 712.49 381.13"/> <rect id="svg_30" fill="#000" height="9.06" width="17.03" y="381.13" x="279.6"/> <rect id="svg_31" fill="#000" height="9.06" width="17.03" y="381.13" x="316.51"/> <rect id="svg_32" fill="#000" height="9.06" width="17.03" y="381.13" x="360.5"/> <rect id="svg_33" fill="#000" height="9.06" width="17.03" y="381.13" x="405.92"/> <rect id="svg_34" fill="#000" height="9.06" width="17.03" y="381.13" x="454.18"/> <rect id="svg_35" fill="#000" height="9.06" width="17.03" y="381.13" x="518.05"/> <rect id="svg_36" fill="#000" height="9.06" width="17.03" y="381.13" x="563.47"/> <rect id="svg_37" fill="#000" height="9.06" width="17.03" y="381.13" x="613.14"/> <rect id="svg_38" fill="#000" height="9.06" width="17.03" y="381.13" x="655.72"/> <rect id="svg_39" fill="#000" height="9.06" width="17.03" y="381.13" x="695.46"/> <polygon id="svg_40" fill="#000" points="739.46 358.48 252.64 358.48 246.96 342.63 743.72 342.63 739.46 358.48"/> <ellipse id="svg_42" fill="#000" ry="18.12" rx="11.35" cy="335.83" cx="492.5"/> <ellipse id="svg_43" opacity="0.2" ry="18.12" rx="11.35" cy="335.83" cx="492.5"/> <ellipse id="svg_44" fill="#000" ry="11.32" rx="7.1" cy="335.83" cx="492.5"/> <path id="svg_45" fill="url(#62e9b6da-24f7-4061-9c04-454aab4390a5)" d="m658.67,597.129998l-48.68,-37.36s-3.93,-15.57 -5.5,-26.47s-3.93,-57.6 -3.93,-57.6a67.86,67.86 0 0 0 2.21,-12.36c0.48,-0.1 1,-0.22 1.45,-0.35a24.28,24.28 0 0 0 16.39,-14.13c5,-12.44 -1.46,-27.14 -9.64,-37s-18.47,-17.78 -23.85,-30c-6.64,-15.06 -4.37,-33.26 -7.76,-49.74a15,15 0 0 0 -2.51,-6.43c-2.1,-2.61 -5.39,-3.18 -8.33,-4.22c-9.28,-3.29 -16.24,-12.31 -21.67,-21.72c-8.79,-15.25 -17.89,-38.44 -36,-39.76c-6.73,-0.49 -13.76,1.78 -20.56,1.76c-10.55,0 -21,0.13 -31.46,1.58c-3.74,0.51 -7.62,1.21 -10.74,3.68c-10.71,8.47 -5.86,30.86 -16.18,40c-3.07,2.71 -7,3.68 -10.47,5.54c-13.08,7 -18.89,25.67 -18.12,42.47c0.36,7.87 2,16.07 6.65,21.82c3.68,4.6 8.93,7.24 12.36,12.09c5.54,7.83 4.79,18.21 4.19,28.77c-7.4,3.1 -13.34,6.66 -15.21,10.49c-6.28,12.84 -5.5,56.82 -5.5,56.82s2.36,72 -15.7,81l-67.53,46.7s-47.9,-41.64 -59.68,-17.12c-8.06,16.77 21.35,26.26 40.74,30.58c-12.23,8.68 -19,24.72 -13.26,35.59c9,17.12 34.16,28.8 34.16,28.8s95.95,4.63 140.3,-5.31l0.73,0c18.83,3.41 45.85,7 67.52,4.84c0.41,1 0.7,1.64 0.7,1.64s139,11.68 164.11,-35.81c12.89,-24.35 -0.56,-35.6 -16.72,-40.78c18.09,-1.44 38.69,-6.5 41.06,-21.88c4.35,-28.04 -63.57,3.87 -63.57,3.87zm-14,14.89c-25.43,9.27 -46.08,9.79 -57.07,9.09c-5.41,-11.77 -27.92,-62.79 -28.51,-96.93c0.14,-7.62 1.5,-14.28 4.54,-19.28c6.55,-10.77 8.48,-19.21 8.26,-25.63c0,-0.48 0,-0.94 0,-1.4a26.07,26.07 0 0 0 -0.57,-5.84a15.32,15.32 0 0 1 0.93,8.34c-2.36,12.07 3.93,90.29 3.93,90.29s5.1,17.51 15.7,22.57l52.79,18.79zm-196.26,13.26l24.34,-15.57s-41.4,-24.22 -40.25,-37.49l8,-63.23a65.12,65.12 0 0 0 2.16,8c1.42,4.15 2,10.23 2.11,17.47c-0.27,35.25 -12.27,93.81 -12.27,93.81l0.15,0l-0.09,0.42l-0.85,0.05c-19.75,-0.6 -65.77,-2.32 -91.54,-5.89l108.24,2.43zm153.61,23.6l0,-5.39l-6,0l6,5.39z"/> <path id="svg_46" fill="#965d7b" d="m545.02,306.109998c5.25,9.18 12,18 20.95,21.18c2.84,1 6,1.57 8,4.11a14.74,14.74 0 0 1 2.42,6.27c3.27,16.07 1.08,33.82 7.5,48.5c5.2,11.89 15.15,19.64 23.06,29.23s14.12,23.93 9.32,36.05a23.53,23.53 0 0 1 -15.77,13.78c-6.62,1.79 -13.53,1 -20.25,-0.15c-8.86,-1.57 -17.88,-4 -25.26,-10c-12.77,-10.37 -18.17,-29 -24.85,-45.56c-3.14,-7.76 -7.31,-15.89 -14.21,-18.67c-7.91,-3.18 -16.79,2.13 -21.92,9.92s-7.41,17.58 -9.89,27c-2.8,10.63 -6.35,21.68 -13.71,28.63a23.08,23.08 0 0 1 -24.64,4.93c-8.2,-3.42 -14.69,-12.06 -16.57,-22.09c-2.91,-15.46 4.06,-34 -4.49,-46.22c-3.32,-4.73 -8.39,-7.31 -12,-11.79c-4.45,-5.61 -6.08,-13.6 -6.43,-21.27c-0.75,-16.38 4.87,-34.63 17.51,-41.41c3.38,-1.81 7.15,-2.76 10.12,-5.4c10,-8.88 5.29,-30.71 15.64,-39c3,-2.41 6.76,-3.08 10.38,-3.59c10.14,-1.41 20.21,-1.57 30.41,-1.54c6.58,0 13.37,-2.19 19.88,-1.71c17.51,1.32 26.28,23.93 34.8,38.8z"/> <polygon id="svg_47" fill="#575988" points="357.29 637.16 361.12 682.53 629 680.94 623.9 631.41 533.33 620.87 374.51 630.45 357.29 637.16"/> <polygon id="svg_48" opacity="0.05" points="357.29 637.16 361.12 682.53 629 680.94 623.9 631.41 533.33 620.87 374.51 630.45 357.29 637.16"/> <path id="svg_49" fill="#f7c4a7" d="m533.56,668.879998l-89.18,8.35s61.1,15.56 96.77,8l-7.59,-16.35z"/> <path id="svg_50" opacity="0.1" d="m533.56,668.879998l-89.18,8.35s61.1,15.56 96.77,8l-7.59,-16.35z"/> <path id="svg_51" fill="#f7c4a7" d="m465.63,349.349998s17.46,45.92 -8.35,66.41s-4.55,77.8 -4.55,77.8l99.43,-4.55s9.87,-64.51 4.55,-78.18c0,0 -23.53,6.83 -28.84,-7.59s-9.11,-53.89 -9.11,-53.89l-53.13,0z"/> <path id="svg_52" fill="#575988" d="m442.86,627.129998s-83.87,-1.9 -108.53,-8s-45.92,23.15 -37.19,39.85s33,28.08 33,28.08s124.85,6.07 151.8,-11c0,0 10.25,-29.22 0,-34.91l-130.15,0l96,-1.9l-4.93,-12.12z"/> <path id="svg_53" fill="#575988" d="m576.07,618.409998s28.08,6.07 66.79,-9.11c0,0 72.48,-2.28 48.2,44s-158.63,34.91 -158.63,34.91s-8,-17.08 0,-21.63s77.42,-33.77 99,-32.26l-60,11.76l4.64,-27.67z"/> <path id="svg_54" opacity="0.1" d="m522.2,371.439998c-1.45,-10.81 -2.3,-19.62 -2.3,-19.62l-53.13,0a103.6,103.6 0 0 1 5.08,21.48a41.75,41.75 0 0 0 50.35,-1.86z"/> <circle id="svg_55" fill="#f7c4a7" r="41.74" cy="336.63" cx="494.66"/> <path id="svg_56" fill="#f7c4a7" d="m470.19,409.309998s-50.09,9.49 -56.16,22s-5.31,55.41 -5.31,55.41s2.28,70.21 -15.18,78.93l-65.27,45.54s-46.3,-40.61 -57.68,-16.7s54.65,32.64 54.65,32.64l73.62,-22l23.53,-15.18s11,-5.31 12.14,-18.22l9.87,-78.18l39.47,-11.38l63.73,0l8.54,-24.38s15.75,12.62 13.47,24.38s3.79,88 3.79,88s4.93,17.08 15.18,22l59.21,21.32s62.62,6.07 66.79,-21.25s-61.48,3.79 -61.48,3.79l-47.06,-36.43s-3.79,-15.18 -5.31,-25.81s-3.79,-56.16 -3.79,-56.16s14.42,-47.82 -27.32,-56.16l-53.89,-16.7l-45.54,4.54z"/> <path id="svg_57" opacity="0.1" d="m436.6,418.979998l7.78,51.42s-8,23.91 0,47.44s-9.88,111.19 -9.88,111.19s93.73,30 151,-4.55c0,0 -42.12,-88.8 -24.29,-118.4s0.29,-41.18 0.29,-41.18l2.8,-54.41l-12.9,-3.79l-7.59,53.79s-52.37,36.43 -91.08,4.55l-8.35,-58.44l-7.78,12.38z"/> <path id="svg_58" opacity="0.07" fill="#fff" d="m490.74,480.099998a30.73,30.73 0 0 0 -39.79,-11.19c12.71,9.51 26.72,12.05 39.79,11.19z"/> <path id="svg_59" opacity="0.07" fill="#fff" d="m512.25,474.399998a30.73,30.73 0 0 1 39.79,-11.19c-12.7,9.51 -26.72,12.06 -39.79,11.19z"/> <path id="svg_60" opacity="0.1" d="m436.6,418.979998l7.78,48.76s-8,23.91 0,47.44s-9.88,111.19 -9.88,111.19s93.73,30 151,-4.55c0,0 -42.12,-88.8 -24.29,-118.4s0.29,-41.18 0.29,-41.18l2.74,-54.45l-12.9,-3.79l-7.59,53.89s-52.37,36.43 -91.08,4.55l-8.35,-58.44l-7.72,14.98z"/> <path id="svg_61" fill="#fc6681" d="m436.22,418.6l8.16,49.9s-8,23.91 0,47.44s-9.88,111.19 -9.88,111.19s93.73,30 151,-4.55c0,0 -42.12,-88.8 -24.29,-118.4s0.29,-41.18 0.29,-41.18l2.74,-54.45l-12.9,-3.79l-7.59,53.89s-52.37,36.43 -91.08,4.55l-8.35,-58.44l-8.1,13.84z"/> <path id="svg_62" fill="#f7c4a7" d="m474.74,645.729998l19.76,-2.66s22.77,-29.22 39.09,-6.83c0,0 6.83,14.42 15.18,17.08a112.22,112.22 0 0 0 17.46,3.79l-33.77,9.49s-14.8,8.73 -30.36,6.45a59,59 0 0 0 -27.32,2.28l-0.04,-29.6z"/> <path id="svg_63" opacity="0.1" d="m452.92,521.819998s35.67,5.31 41.74,-4.17"/> <path id="svg_64" opacity="0.1" d="m520.5,515.749998s6.83,6.83 34.15,1.9"/> <path id="svg_65" opacity="0.1" d="m451.02,409.869998s26.18,3.79 31.12,1.52"/> <path id="svg_66" opacity="0.1" d="m508.71,409.869998s26.18,3.79 31.12,1.52"/> <path id="svg_67" opacity="0.1" d="m477.59,642.879998s7.21,34 0,35.2s-17.46,-5.6 -17.46,-6.36s4.55,-22.39 4.55,-22.39l12.91,-6.45z"/> <path id="svg_68" fill="#575988" d="m476.83,642.879998s7.21,34 0,35.2s-17.46,-5.6 -17.46,-6.36s4.55,-22.39 4.55,-22.39l12.91,-6.45z"/> <path id="svg_69" opacity="0.1" d="m441.6,404.899998c-3.18,7.39 -4.31,16.11 -0.93,23.41c2.58,5.57 7.62,10.08 8.59,16.14c1.22,7.6 -4.41,15.33 -2.31,22.73c0.8,2.84 2.67,5.24 4.57,7.49c5.78,6.83 13.46,13.44 22.38,12.91c1.41,-13.78 -10.5,-27.15 -6.6,-40.44c1.4,-4.76 4.68,-8.72 6.66,-13.26c3.29,-7.53 2.82,-16.13 1.63,-24.26c-1.73,-11.79 -6.11,-26.26 -17.8,-31.78c-5.38,-2.54 -13,-2.72 -14.92,4.17c-1,3.68 1.4,7.14 1.73,10.74c0.42,4.57 -1.23,8.04 -3,12.15z"/> <path id="svg_70" fill="#965d7b" d="m441.6,403.759998c-3.18,7.39 -4.31,16.11 -0.93,23.41c2.58,5.57 7.62,10.08 8.59,16.14c1.22,7.6 -4.41,15.33 -2.31,22.73c0.8,2.84 2.67,5.24 4.57,7.49c5.78,6.83 13.46,13.44 22.38,12.91c1.41,-13.78 -10.5,-27.15 -6.6,-40.44c1.4,-4.76 4.68,-8.72 6.66,-13.26c3.29,-7.53 2.82,-16.13 1.63,-24.26c-1.73,-11.79 -6.11,-26.26 -17.8,-31.78c-5.38,-2.54 -13,-2.72 -14.92,4.17c-1,3.68 1.4,7.14 1.73,10.74c0.42,4.58 -1.23,8.05 -3,12.15z"/> <path id="svg_71" opacity="0.1" d="m444.57,316.139998s55.41,-7.59 56.92,3.79s50.47,30 50.47,30l-12.14,-30l-22.39,-37.19s-41,-3 -42.88,0s-23.53,12.9 -23.53,12.9l-6.45,20.5z"/> <path id="svg_72" fill="#965d7b" d="m444.57,315.379998s55.41,-7.59 56.92,3.79s50.47,30 50.47,30l-12.14,-30l-22.39,-37.18s-41,-3 -42.88,0s-23.53,12.9 -23.53,12.9l-6.45,20.49z"/> <path id="svg_73" opacity="0.1" d="m540.99,396.489998a27,27 0 0 1 5.56,11.13c0.92,3.91 0.95,8 1.83,11.92c1.87,8.35 7.39,15.37 13.16,21.69a23.67,23.67 0 0 0 6.72,5.66c2.64,1.3 6,1.57 8.45,0c-2.32,-1.9 -3.58,-4.81 -4.41,-7.7a39.58,39.58 0 0 1 -1.54,-12.41c0.25,-7 2.3,-14.39 -0.61,-20.77c-1.68,-3.68 -4.81,-6.48 -8,-9a42.61,42.61 0 0 0 -7.14,-4.7c-4.71,-2.35 -10.12,-3.38 -15.32,-3.89c-6.78,-0.7 -0.85,5.49 1.3,8.07z"/> <path id="svg_74" fill="#965d7b" d="m540.99,395.339998a27,27 0 0 1 5.56,11.15c0.92,3.91 0.95,8 1.83,11.92c1.87,8.35 7.39,15.37 13.16,21.69a23.67,23.67 0 0 0 6.72,5.66c2.64,1.3 6,1.57 8.45,0c-2.32,-1.9 -3.58,-4.81 -4.41,-7.7a39.58,39.58 0 0 1 -1.54,-12.41c0.25,-7 2.3,-14.39 -0.61,-20.77c-1.68,-3.68 -4.81,-6.48 -8,-9a42.61,42.61 0 0 0 -7.14,-4.7c-4.71,-2.35 -10.12,-3.38 -15.32,-3.89c-6.78,-0.71 -0.85,5.48 1.3,8.05z"/> </g> </svg>